<svg version="1.1" id="Layer_1" xmlns="http://www.w3.org/2000/svg" xmlns:xlink="http://www.w3.org/1999/xlink" x="0px" y="0px"
	 width="100%" viewBox="0 0 1024 1024" enable-background="new 0 0 1024 1024" xml:space="preserve">
<path fill="none" opacity="1.000000" stroke="#000000" stroke-linecap="round" stroke-linejoin="round" stroke-width="17.000000"
	d="
M882.500000,815.000000 
	C885.673340,816.466614 888.962952,817.144165 892.501221,817.041870 
	C897.996643,816.882996 903.502136,816.903809 908.999390,817.026428 
	C914.753418,817.154663 916.803589,818.738342 916.928101,824.001709 
	C917.172363,834.329224 917.159851,844.670227 916.931152,854.998474 
	C916.820129,860.011292 915.005981,861.512207 909.998474,861.984009 
	C908.842102,862.092957 907.666687,862.000000 906.500000,862.000000 
	C646.333313,862.000000 386.166656,862.003357 126.000008,861.969055 
	C121.999969,861.968567 118.006332,863.226990 113.997353,862.008728 
	C111.969269,861.392456 110.314293,860.596313 110.460876,857.997803 
	C110.525948,856.844177 110.027039,855.667297 110.022095,854.499878 
	C109.982536,845.166748 109.933304,835.832703 110.021645,826.500183 
	C110.089180,819.365784 111.952629,817.563477 119.000069,817.508545 
	C124.499733,817.465698 130.000000,817.503845 135.500000,817.498047 
	C137.553192,817.495911 139.563461,817.532104 141.520874,816.541199 
	C143.764404,815.405396 146.237778,815.401550 148.479370,816.540588 
	C150.598495,817.617310 152.787979,817.495117 155.000000,817.495178 
	C266.833344,817.500671 378.668884,817.944275 490.499420,817.382629 
	C617.667358,816.743958 744.833557,817.308289 872.000122,817.056396 
	C875.553772,817.049377 878.742493,816.045715 882.000000,815.000000 
"/>
<path fill="none" opacity="1.000000" stroke="#000000" stroke-linecap="round" stroke-linejoin="round" stroke-width="17.000000"
	d="
M513.500000,118.000000 
	C513.666687,126.666664 513.851135,135.333054 513.982971,144.000259 
	C514.005676,145.490234 514.109924,146.600021 512.120850,147.715485 
	C509.824402,149.003326 507.825287,151.339294 506.469360,153.984299 
	C496.198669,174.019638 479.705811,187.824036 461.026520,199.542297 
	C446.809875,208.460938 432.161743,216.690704 418.481689,226.474380 
	C395.097076,243.198532 375.199371,262.883667 364.032532,290.013397 
	C359.427551,301.201080 356.972961,312.822052 355.768738,324.977081 
	C354.085693,341.964600 356.640808,358.090240 362.018250,373.993835 
	C366.186981,386.322693 373.536743,397.065918 379.500000,408.500000 
"/>
<path fill="none" opacity="1.000000" stroke="#000000" stroke-linecap="round" stroke-linejoin="round" stroke-width="17.000000"
	d="
M514.500000,147.000000 
	C518.445618,150.093292 521.158020,153.966827 523.647400,158.417557 
	C532.990906,175.122849 547.080811,187.243118 562.977051,197.535431 
	C579.899902,208.492371 597.726196,218.049713 613.973694,230.035660 
	C635.128357,245.641663 652.836548,264.202393 663.006470,288.997345 
	C668.595093,302.622986 671.744568,316.609772 672.171509,331.495087 
	C672.921753,357.653290 665.365173,381.008759 651.009155,402.506104 
	C648.961060,405.573090 647.202454,408.604034 649.394836,412.558289 
	C650.211487,414.031250 649.972107,416.166229 649.977783,418.000061 
	C650.019043,431.333282 650.000000,444.666656 650.000000,458.000000 
"/>
<path fill="none" opacity="1.000000" stroke="#000000" stroke-linecap="round" stroke-linejoin="round" stroke-width="17.000000"
	d="
M693.000000,767.750000 
	C693.000000,699.666687 693.065796,631.583069 692.841492,563.500549 
	C692.827515,559.279785 695.880554,555.617676 694.428589,551.525330 
	C693.080994,547.727417 692.986450,543.908386 692.989868,540.000000 
	C693.010315,516.833313 692.947754,493.666473 693.027100,470.500092 
	C693.056519,461.926544 691.829895,459.823792 681.489929,460.264099 
	C671.544800,460.687592 661.378784,461.998169 651.491455,459.028412 
	C650.723022,458.797607 650.106873,458.384308 648.953125,458.893768 
	C643.703369,461.211670 638.039001,460.489990 632.500000,460.490875 
	C551.000000,460.504120 469.500000,460.497559 388.000000,460.510590 
	C385.281189,460.511017 382.604492,460.474823 379.986755,459.536957 
	C378.899902,459.147552 377.574310,458.794434 376.514252,459.057434 
	C365.566101,461.773743 354.523407,460.187622 343.499298,460.062714 
	C335.846558,459.975952 334.069489,460.906250 334.035980,469.000153 
	C333.935852,493.166382 334.317749,517.339905 333.814972,541.496155 
	C333.654877,549.187439 333.788300,556.828186 333.822876,564.500793 
	C334.128143,632.249451 334.000000,700.000000 334.000000,767.750000 
"/>
<path fill="none" opacity="1.000000" stroke="#000000" stroke-linecap="round" stroke-linejoin="round" stroke-width="16.000000"
	d="
M513.500000,237.000000 
	C510.833344,234.500000 508.144196,232.023483 505.503784,229.496033 
	C492.115204,216.680069 475.192261,216.856445 462.687073,229.682388 
	C456.709167,235.813599 450.732025,241.238403 443.061981,245.122375 
	C436.559357,248.415192 431.625763,253.652802 428.422333,260.463470 
	C426.889923,263.721497 425.977081,266.905884 425.958893,270.499786 
	C425.924713,277.248047 424.492706,278.717804 418.000824,279.506744 
	C411.989532,280.237366 406.806152,282.940674 402.541199,287.042847 
	C391.134613,298.014130 389.062805,311.626160 392.009460,326.498138 
	C392.441406,328.678253 392.827820,330.891754 393.538788,332.986847 
	C394.723450,336.478058 394.368805,339.138611 391.596558,342.090668 
	C384.716278,349.417206 384.874298,358.540741 387.112762,367.471741 
	C389.608612,377.429504 395.308105,385.745483 403.060455,392.429901 
	C406.553711,395.441986 409.051666,398.952698 411.000000,403.000000 
"/>
<path fill="none" opacity="1.000000" stroke="#000000" stroke-linecap="round" stroke-linejoin="round" stroke-width="17.000000"
	d="
M617.000000,767.750000 
	C617.000000,744.666687 617.424438,721.570984 616.753906,698.507141 
	C616.539307,691.128113 616.468018,683.857666 616.850403,676.492249 
	C617.152588,670.671753 618.277649,664.545410 615.038513,658.977600 
	C614.748718,658.479492 614.763733,657.544556 615.035645,657.018433 
	C618.696899,649.934631 616.392090,642.337769 616.968506,634.997559 
	C617.267456,631.191650 614.362305,628.077332 614.135132,624.491455 
	C613.916504,621.037964 615.566223,617.792114 615.173218,613.982117 
	C613.029236,593.197327 602.936401,576.879028 588.010315,562.988953 
	C569.916504,546.151062 548.961853,533.049500 529.507629,517.990112 
	C525.288696,514.724304 520.990784,511.526093 517.057617,507.936859 
	C514.099426,505.237335 511.321014,506.011780 509.053833,508.059601 
	C487.939819,527.131042 463.318268,541.687439 441.953186,560.446655 
	C429.166748,571.673523 419.156891,584.702148 414.109070,601.033691 
	C411.926361,608.095581 410.204346,615.464722 412.460083,623.011902 
	C412.734436,623.929749 412.797394,624.856140 412.345947,626.036682 
	C408.514648,636.055176 409.243652,646.283875 411.587433,656.479919 
	C411.782227,657.327332 412.260162,658.152466 411.979584,658.993164 
	C408.860962,668.337341 408.860138,677.662964 411.973969,687.008667 
	C412.173889,687.608765 412.256714,688.489929 411.960266,688.975769 
	C408.971252,693.874084 410.065704,699.284973 410.041168,704.500183 
	C409.941895,725.583069 410.000000,746.666687 410.000000,767.750000 
"/>
<path fill="none" opacity="1.000000" stroke="#000000" stroke-linecap="round" stroke-linejoin="round" stroke-width="17.000000"
	d="
M145.000000,815.000000 
	C144.833344,803.166687 144.627487,791.333679 144.513504,779.499878 
	C144.434753,771.322449 146.348358,770.385315 154.001389,770.029846 
	C157.404297,769.871826 160.829437,770.232056 164.025375,768.548157 
	C164.683731,768.201294 165.388641,767.781616 166.550339,768.406433 
	C170.588425,770.578186 175.110840,769.997253 179.500000,769.997864 
	C210.500000,770.001892 241.502884,770.223206 272.497711,769.823059 
	C279.180023,769.736816 285.788727,769.411255 292.510437,769.833984 
	C302.637024,770.471008 312.833405,769.982300 322.999969,770.010742 
	C326.096436,770.019348 329.152161,770.019348 332.013397,768.525635 
	C333.097809,767.959534 334.184509,767.748779 335.529144,768.443604 
	C338.957977,770.215332 342.749390,770.022949 346.500031,770.015503 
	C364.166626,769.980591 381.847137,770.403870 399.493195,769.800903 
	C406.534576,769.560303 413.478455,769.664978 420.503845,769.800476 
	C446.494171,770.301758 472.500092,769.966980 498.499908,770.031738 
	C502.963593,770.042847 507.220184,769.669250 511.009888,767.014099 
	C512.617371,765.887939 514.382629,765.887878 515.990051,767.014221 
	C519.779724,769.669373 524.036377,770.042847 528.500061,770.031738 
	C554.499939,769.966980 580.504700,770.270081 606.496826,769.817993 
	C613.351135,769.698792 620.126343,769.537109 627.007751,769.777100 
	C645.651794,770.427307 664.348206,770.427307 682.992249,769.777100 
	C689.873657,769.537109 696.620728,769.387146 703.510864,769.831665 
	C713.635437,770.484741 723.833313,770.000000 734.000000,770.000000 
	C734.166687,770.000000 734.342346,770.035095 734.498718,769.994934 
	C744.333435,767.467102 754.150330,770.562561 764.004639,770.098816 
	C773.649963,769.644836 783.333313,770.000000 793.000000,770.000000 
	C802.833313,770.000000 812.666687,770.000000 822.500000,770.000000 
	C832.166687,770.000000 841.833313,770.000000 851.500000,770.000000 
	C852.166687,770.000000 852.933716,770.219116 853.484741,769.966675 
	C860.174988,766.901550 866.856812,769.707825 873.493713,770.104736 
	C880.921936,770.549011 881.596008,770.665649 881.883484,778.504272 
	C882.325989,790.571350 882.000000,802.666687 882.000000,814.750000 
"/>
<path fill="none" opacity="1.000000" stroke="#000000" stroke-linecap="round" stroke-linejoin="round" stroke-width="17.000000"
	d="
M744.500000,555.500000 
	C745.686768,582.489441 743.224731,609.523987 745.156067,636.344788 
	C749.672974,638.389893 753.937073,639.198730 758.513733,638.054871 
	C759.925537,637.702026 761.500000,638.000000 763.000000,638.000000 
	C795.833313,638.000000 828.666687,638.000000 861.500000,638.000000 
"/>
<path fill="none" opacity="1.000000" stroke="#000000" stroke-linecap="round" stroke-linejoin="round" stroke-width="17.000000"
	d="
M165.500000,555.500000 
	C165.500000,581.500000 165.500000,607.500000 165.500000,633.500000 
	C165.500000,645.833313 165.358032,658.168884 165.547852,670.499268 
	C165.683655,679.320740 166.930786,680.008240 175.000000,680.005127 
	C207.500000,679.992615 240.000031,680.018677 272.499969,679.970093 
	C275.621765,679.965454 278.626251,680.242554 281.691284,681.693237 
	C285.145050,678.105408 289.986176,676.343628 293.080231,672.057922 
	C299.190338,663.594727 298.829926,645.880249 286.532654,639.932495 
	C283.256104,638.347717 280.508484,635.736145 276.455139,637.916565 
	C275.421021,638.472839 273.833344,638.000000 272.500000,638.000000 
	C237.000000,638.000000 201.500000,638.000000 166.000000,638.000000 
"/>
<path fill="none" opacity="1.000000" stroke="#000000" stroke-linecap="round" stroke-linejoin="round" stroke-width="16.000000"
	d="
M803.500000,364.000000 
	C805.342834,365.304260 807.227051,366.451294 808.539978,368.474030 
	C815.855835,379.745728 826.032776,387.975403 836.932861,395.596008 
	C844.495422,400.883301 851.603027,406.804016 856.576355,414.953400 
	C860.478882,421.347900 862.267151,428.271515 862.911560,435.507874 
	C863.368103,440.633881 863.095947,445.835602 862.974365,450.999390 
	C862.838440,456.771759 861.864746,457.676025 856.511292,459.044281 
	C852.122437,460.166046 847.783142,461.123444 843.526306,458.948517 
	C841.968445,458.152557 840.488770,458.538116 838.999939,458.534973 
	C815.333374,458.485291 791.666626,458.485291 768.000061,458.534973 
	C766.511230,458.538116 765.026794,458.135254 763.475281,458.953064 
	C758.787537,461.423828 754.229980,459.561157 749.463684,458.701111 
	C745.399597,457.967743 743.694763,455.529327 743.636353,452.497375 
	C743.376953,439.033234 742.815186,425.459137 750.960754,413.473297 
	C756.061584,405.967560 762.711243,400.192017 769.995789,394.994080 
	C780.273438,387.660309 790.016235,379.755402 796.989746,368.993347 
	C798.486328,366.683746 800.453735,365.011139 803.000000,364.000000 
"/>
<path fill="none" opacity="1.000000" stroke="#000000" stroke-linecap="round" stroke-linejoin="round" stroke-width="17.000000"
	d="
M282.500000,721.000000 
	C249.500000,721.000000 216.499985,721.012146 183.500015,720.978271 
	C180.666519,720.975342 177.834854,720.632019 174.999710,720.506653 
	C167.595413,720.179565 165.590149,722.000916 165.523132,729.500183 
	C165.430817,739.832703 165.500000,750.166687 165.500000,760.500000 
	C165.500000,762.833313 165.500000,765.166687 165.500000,767.500000 
"/>
<path fill="none" opacity="1.000000" stroke="#000000" stroke-linecap="round" stroke-linejoin="round" stroke-width="17.000000"
	d="
M735.500000,720.250000 
	C739.013367,719.772949 742.506836,720.361511 746.001221,720.408142 
	C760.499939,720.601562 774.999878,720.682434 789.503052,720.071899 
	C798.653503,719.686768 807.834839,719.892578 816.999634,720.025269 
	C830.666138,720.223145 844.344543,719.394104 858.000671,720.491333 
	C858.828674,720.557922 860.185913,720.826538 860.422119,720.450989 
	C863.944397,714.850464 870.619385,711.372070 871.507690,704.000916 
	C872.364441,696.891907 870.386780,690.926208 865.617371,685.398743 
	C861.938477,681.135132 858.401184,679.661621 852.496155,679.754395 
	C819.837524,680.267456 787.166687,680.000000 754.500000,680.000000 
	C753.166687,680.000000 751.600952,679.539185 750.537903,680.075195 
	C743.925049,683.409790 739.138855,679.018616 734.614014,675.837830 
	C729.648010,672.346985 728.307556,666.562500 727.927124,660.504578 
	C727.282715,650.242249 731.825500,643.522888 740.987427,639.471558 
	C742.410889,638.842102 743.666687,637.833374 745.000000,637.000000 
"/>
<path fill="none" opacity="1.000000" stroke="#000000" stroke-linecap="round" stroke-linejoin="round" stroke-width="16.000000"
	d="
M224.000000,364.000000 
	C221.743591,364.982910 219.795609,366.584534 218.565765,368.541321 
	C210.288589,381.711243 197.744614,390.102356 185.604507,399.140381 
	C177.520874,405.158508 170.358444,412.355194 166.907227,422.468353 
	C165.110519,427.733246 163.851166,432.966949 164.020920,438.499359 
	C164.179474,443.666107 163.581757,448.838654 164.443619,454.009399 
	C164.909943,456.806915 166.177109,458.152466 168.994049,458.542969 
	C174.159042,459.258972 179.270966,461.909485 184.478470,458.961975 
	C186.012878,458.093475 187.511215,458.538177 189.000076,458.535004 
	C212.333298,458.485077 235.666702,458.485077 258.999939,458.535004 
	C260.488770,458.538177 261.973206,458.135284 263.524719,458.953064 
	C268.212433,461.423889 272.770020,459.561157 277.536285,458.701111 
	C281.600372,457.967743 283.446259,455.480988 283.340576,452.505676 
	C282.851593,438.738037 284.145111,424.643463 275.108093,412.420105 
	C269.711945,405.121338 263.230835,399.227203 255.988083,394.016571 
	C246.227722,386.994720 237.067413,379.363586 230.002106,369.498505 
	C229.652405,369.010223 229.449280,368.282501 228.982162,368.033508 
	C224.058807,365.408813 223.703384,360.705505 223.535538,355.998718 
	C223.428772,353.005524 223.666656,350.000000 223.749985,347.000000 
"/>
<path fill="none" opacity="1.000000" stroke="#000000" stroke-linecap="round" stroke-linejoin="round" stroke-width="18.000000"
	d="
M570.000000,274.000000 
	C570.164978,268.439178 569.185730,262.752167 571.943604,257.470551 
	C572.175598,257.026337 572.768127,256.485138 572.080261,255.446823 
	C568.399841,249.891403 568.866821,243.033768 566.568359,236.974075 
	C562.403503,225.994156 553.841309,221.100708 542.985229,220.172592 
	C536.418701,219.611191 530.444824,222.750626 524.988708,226.483521 
	C520.848328,229.316299 516.978577,233.008682 514.426575,236.788040 
	C512.210083,240.070526 513.560303,245.832458 513.522461,250.500183 
	C513.446777,259.832916 513.474060,269.166748 513.511292,278.499969 
	C513.529053,282.948975 513.755737,287.410706 511.500763,291.500427 
	C510.950958,292.497559 510.935455,293.489685 511.496704,294.501831 
	C513.761414,298.586121 513.514771,303.051178 513.511230,307.500000 
	C513.489014,335.333344 513.477112,363.166687 513.522461,390.999969 
	C513.530029,395.666870 513.833374,400.333344 514.000000,405.000000 
"/>
<path fill="none" opacity="1.000000" stroke="#000000" stroke-linecap="round" stroke-linejoin="round" stroke-width="17.000000"
	d="
M413.500000,625.000000 
	C437.751312,625.896118 460.041931,632.871460 479.414825,647.611938 
	C489.132263,655.005920 497.509125,663.955688 504.042023,674.473877 
	C506.544006,678.502136 508.784271,682.901550 513.500000,685.000000 
"/>
<path fill="none" opacity="1.000000" stroke="#000000" stroke-linecap="round" stroke-linejoin="round" stroke-width="17.000000"
	d="
M613.000000,625.000000 
	C603.769897,625.897034 594.508484,626.560303 585.498657,628.995056 
	C570.707397,632.992188 557.418884,639.815918 545.459717,649.450012 
	C535.794250,657.236389 528.014038,666.526367 521.463806,676.977356 
	C520.215820,678.968567 518.841187,681.243103 516.926697,682.376160 
	C513.302063,684.521362 513.459290,687.595093 513.469238,691.000061 
	C513.514587,706.506531 513.792419,722.020630 512.500000,737.500000 
"/>
<path fill="none" opacity="1.000000" stroke="#000000" stroke-linecap="round" stroke-linejoin="round" stroke-width="18.000000"
	d="
M647.500000,408.500000 
	C642.190979,407.555145 636.833923,408.119232 631.499512,408.029541 
	C629.263062,407.991943 626.971924,408.045319 625.024109,406.956818 
	C620.780212,404.585114 616.775879,404.289398 611.938782,405.804596 
	C606.568604,407.486725 600.720703,407.523987 595.000000,407.515167 
	C571.500061,407.478882 547.994507,407.782532 524.503418,407.324097 
	C517.647766,407.190338 510.873077,407.039429 503.992310,407.281250 
	C485.681580,407.924805 467.328522,407.755035 449.001709,407.408844 
	C437.114105,407.184296 425.116180,407.355194 413.503204,403.988922 
	C412.312622,403.643799 411.210175,403.052490 409.992706,403.990509 
	C403.677368,408.856293 396.257416,408.008026 389.000000,408.002380 
	C377.669983,407.993561 377.500000,408.169983 377.500000,419.500000 
	C377.500000,432.500000 377.500000,445.500000 377.500000,458.500000 
"/>
<path fill="none" opacity="1.000000" stroke="#000000" stroke-linecap="round" stroke-linejoin="round" stroke-width="15.000000"
	d="
M614.750000,658.000000 
	C596.994507,657.961304 581.167725,664.110352 566.538696,673.559875 
	C555.668152,680.581665 546.798828,689.811707 539.525940,700.517639 
	C537.512207,703.481995 535.706116,706.948364 536.615662,710.470154 
	C538.700256,718.541260 533.595825,723.541016 529.443909,728.956970 
	C527.960571,730.891968 525.990356,732.559570 523.972290,733.960083 
	C516.052551,739.456848 509.717621,738.957214 501.035309,731.956177 
	C497.021484,728.719788 494.223572,724.378235 491.401337,720.064575 
	C490.276337,718.345093 490.750916,716.910706 491.071198,715.516357 
	C492.242096,710.418335 491.327820,705.886841 488.527649,701.482422 
	C472.803741,676.750427 449.741608,663.365662 421.486328,658.072937 
	C418.588043,657.530029 415.500000,658.000000 412.500000,658.000000 
"/>
<path fill="none" opacity="1.000000" stroke="#000000" stroke-linecap="round" stroke-linejoin="round" stroke-width="17.000000"
	d="
M178.500000,461.500000 
	C178.666672,463.666656 178.975830,465.833160 178.978394,468.000031 
	C179.011169,495.666656 179.000000,523.333313 179.000000,551.000000 
"/>
<path fill="none" opacity="1.000000" stroke="#000000" stroke-linecap="round" stroke-linejoin="round" stroke-width="17.000000"
	d="
M849.500000,461.500000 
	C849.333313,463.666656 849.024597,465.833160 849.021729,468.000031 
	C848.987854,493.333313 849.012085,518.666687 848.978271,544.000000 
	C848.975342,546.166870 848.666626,548.333313 848.500000,550.500000 
"/>
<path fill="none" opacity="1.000000" stroke="#000000" stroke-linecap="round" stroke-linejoin="round" stroke-width="17.000000"
	d="
M757.500000,461.500000 
	C757.666626,463.500000 757.975830,465.499817 757.978333,467.500031 
	C758.011047,493.166656 758.001770,518.833313 757.998779,544.500000 
	C757.997986,551.104614 757.900818,550.848694 751.533203,553.094177 
	C747.595947,554.482544 743.913513,555.334473 740.002991,553.493652 
	C738.381836,552.730530 736.674500,553.014587 735.000000,553.011902 
	C721.833313,552.990479 708.666687,553.000000 695.500000,553.000000 
"/>
<path fill="none" opacity="1.000000" stroke="#000000" stroke-linecap="round" stroke-linejoin="round" stroke-width="17.000000"
	d="
M269.500000,461.500000 
	C269.333344,463.500000 269.024139,465.499817 269.021576,467.500031 
	C268.988861,493.166656 268.988892,518.833313 269.021606,544.500000 
	C269.024139,546.500183 269.333344,548.500000 269.500031,550.500000 
"/>
<path fill="none" opacity="1.000000" stroke="#000000" stroke-linecap="round" stroke-linejoin="round" stroke-width="17.000000"
	d="
M862.000000,556.000000 
	C862.000000,581.833313 862.000000,607.666687 862.000000,633.500000 
	C862.000000,645.666687 861.968994,657.833435 862.021118,669.999939 
	C862.034729,673.182739 861.707397,676.231262 860.000000,679.000000 
"/>
<path fill="none" opacity="1.000000" stroke="#000000" stroke-linecap="round" stroke-linejoin="round" stroke-width="17.000000"
	d="
M283.000000,555.500000 
	C283.000000,576.333313 282.969116,597.166748 283.018890,617.999939 
	C283.033722,624.218567 283.133057,630.425232 281.500000,636.500000 
"/>
<path fill="none" opacity="1.000000" stroke="#000000" stroke-linecap="round" stroke-linejoin="round" stroke-width="15.000000"
	d="
M490.000000,718.500000 
	C482.315460,718.525085 477.466705,713.187012 471.996704,709.004333 
	C457.459503,697.888245 441.364105,690.560913 423.011627,688.401123 
	C419.475281,687.984924 415.993317,688.306885 412.500000,688.000000 
"/>
<path fill="none" opacity="1.000000" stroke="#000000" stroke-linecap="round" stroke-linejoin="round" stroke-width="16.000000"
	d="
M614.750000,688.000000 
	C590.557495,687.464966 570.009338,696.921692 551.596375,711.620728 
	C547.404541,714.967041 543.092224,716.832520 538.000000,717.500000 
"/>
<path fill="none" opacity="1.000000" stroke="#000000" stroke-linecap="round" stroke-linejoin="round" stroke-width="16.000000"
	d="
M619.000000,404.000000 
	C619.968689,399.910675 622.179565,396.542999 624.993469,393.493988 
	C632.777039,385.060425 635.703186,375.328278 633.064331,363.985046 
	C632.531616,361.695038 631.801025,359.305511 633.946899,356.951599 
	C643.923645,346.007904 643.729919,333.768402 637.986389,321.006104 
	C635.470703,315.416046 631.734192,310.850952 626.524963,307.461609 
	C623.552246,305.527435 622.400391,303.143677 622.806824,298.981140 
	C624.835815,278.202240 610.848328,260.797729 593.475769,255.580658 
	C588.634705,254.126862 583.525696,254.050568 578.485962,255.449387 
	C576.740845,255.933777 574.833313,255.833328 573.000000,256.000000 
"/>
<path fill="none" opacity="1.000000" stroke="#000000" stroke-linecap="round" stroke-linejoin="round" stroke-width="18.000000"
	d="
M255.000000,597.500000 
	C233.500000,597.500000 212.000000,597.500000 190.500000,597.500000 
"/>
<path fill="none" opacity="1.000000" stroke="#000000" stroke-linecap="round" stroke-linejoin="round" stroke-width="18.000000"
	d="
M832.000000,597.750000 
	C821.664185,597.522095 811.343079,597.484619 800.995300,597.875854 
	C790.516602,598.272095 780.000000,597.666626 769.500000,597.500000 
"/>
<path fill="none" opacity="1.000000" stroke="#000000" stroke-linecap="round" stroke-linejoin="round" stroke-width="17.000000"
	d="
M331.500000,553.000000 
	C318.833344,553.000000 306.166656,553.000000 293.500000,553.000000 
	C292.000000,553.000000 290.171234,552.439087 289.054779,553.093445 
	C283.033539,556.622559 277.628876,552.929138 272.003845,551.977234 
	C270.976868,551.803406 269.603363,550.732666 269.060272,551.091248 
	C262.340393,555.528625 254.988205,552.205811 247.998398,552.985596 
	C246.170425,553.189575 244.336243,553.180420 242.488647,553.407715 
	C235.194626,554.304810 229.390717,551.162292 224.500000,546.000000 
"/>
<path fill="none" opacity="1.000000" stroke="#000000" stroke-linecap="round" stroke-linejoin="round" stroke-width="16.000000"
	d="
M585.500000,295.000000 
	C580.484314,294.901886 575.565796,293.714050 570.496826,293.922729 
	C566.914734,294.070221 564.749573,295.172699 564.484985,298.998962 
	C564.219666,302.837006 563.998291,306.689545 563.470276,310.495880 
	C561.591614,324.039642 552.665955,333.282440 539.500000,335.500000 
"/>
<path fill="none" opacity="1.000000" stroke="#000000" stroke-linecap="round" stroke-linejoin="round" stroke-width="16.000000"
	d="
M745.000000,721.000000 
	C743.997437,736.491028 744.717346,752.000549 744.500000,767.500000 
"/>
<path fill="none" opacity="1.000000" stroke="#000000" stroke-linecap="round" stroke-linejoin="round" stroke-width="17.000000"
	d="
M860.000000,721.000000 
	C861.707397,723.768738 862.033936,726.817261 862.020996,730.000061 
	C861.969788,742.583191 862.000000,755.166687 862.000000,767.750000 
"/>
<path fill="none" opacity="1.000000" stroke="#000000" stroke-linecap="round" stroke-linejoin="round" stroke-width="16.000000"
	d="
M802.500000,546.000000 
	C794.965698,555.216431 784.478027,553.766846 774.508850,553.307861 
	C771.617920,553.174805 768.838867,553.642700 765.998474,553.542847 
	C762.903259,553.434021 760.235901,552.164490 757.500000,551.000000 
"/>
<path fill="none" opacity="1.000000" stroke="#000000" stroke-linecap="round" stroke-linejoin="round" stroke-width="16.000000"
	d="
M167.000015,679.500000 
	C165.000015,681.333374 163.209045,683.489624 160.963211,684.943115 
	C152.025360,690.727722 151.554611,707.705750 159.999481,715.000610 
	C162.503036,717.163147 165.000000,719.333313 167.500000,721.500000 
"/>
<path fill="none" opacity="1.000000" stroke="#000000" stroke-linecap="round" stroke-linejoin="round" stroke-width="17.000000"
	d="
M804.500000,546.000000 
	C809.627014,551.556030 815.872070,554.090576 823.503601,553.551331 
	C829.485535,553.128662 835.782104,554.228149 841.427734,552.727966 
	C848.291809,550.903931 853.971802,552.927185 860.031860,554.902283 
	C860.627258,555.096436 861.370728,555.879944 862.552673,555.077637 
	C867.013367,552.049683 872.087769,553.237305 877.000000,553.500000 
"/>
<path fill="none" opacity="1.000000" stroke="#000000" stroke-linecap="round" stroke-linejoin="round" stroke-width="16.000000"
	d="
M222.500000,546.000000 
	C216.994690,551.651489 210.710007,554.572388 202.473495,553.153931 
	C198.801971,552.521729 194.827240,552.550964 190.984451,553.432190 
	C189.242706,553.831604 187.009109,554.130859 185.558838,553.385498 
	C180.572357,550.822815 175.734528,552.235596 171.032578,553.611389 
	C167.533890,554.635071 164.329666,554.907166 161.001266,553.497009 
	C158.693893,552.519409 156.338745,553.181763 154.000000,553.250000 
"/>
<path fill="none" opacity="1.000000" stroke="#000000" stroke-linecap="round" stroke-linejoin="round" stroke-width="16.000000"
	d="
M598.750000,328.000000 
	C598.540405,333.391052 596.260254,338.038574 593.490967,342.494385 
	C591.873047,345.097626 589.752808,347.464355 589.051514,350.511841 
	C588.541504,352.728485 586.977539,352.197662 585.513916,352.556763 
	C580.333130,353.827972 575.059692,354.573578 569.964722,356.401581 
	C560.346924,359.852203 554.345825,366.349457 551.257996,376.259918 
	C550.091553,376.990509 548.494446,376.283142 547.000000,376.500000 
"/>
<path fill="none" opacity="1.000000" stroke="#000000" stroke-linecap="round" stroke-linejoin="round" stroke-width="16.000000"
	d="
M465.000000,378.500000 
	C464.675507,365.839233 454.516754,357.092468 441.995850,356.049988 
	C437.791382,355.699890 433.445343,355.543945 429.526367,357.551483 
	C427.640808,358.517365 426.827362,357.035706 425.468933,356.595917 
	C414.861511,353.161804 405.701904,347.257446 396.988464,340.514923 
	C396.410156,340.067413 395.666656,339.833344 395.000000,339.500000 
"/>
<path fill="none" opacity="1.000000" stroke="#000000" stroke-linecap="round" stroke-linejoin="round" stroke-width="16.000000"
	d="
M430.000000,325.500000 
	C436.821411,322.509399 441.912292,316.886444 448.436829,313.382355 
	C450.577698,312.232574 452.101532,311.339996 454.527344,312.439697 
	C457.648285,313.854553 461.192444,312.606598 464.532501,313.917175 
	C475.014069,318.029968 482.790253,324.462982 485.250000,336.000000 
"/>
<path fill="none" opacity="1.000000" stroke="#000000" stroke-linecap="round" stroke-linejoin="round" stroke-width="16.000000"
	d="
M476.750000,265.000000 
	C476.325134,276.233337 483.270813,282.464233 491.997681,287.504028 
	C497.730957,290.815033 503.851959,292.785797 510.500000,293.000000 
"/>
<path fill="none" opacity="1.000000" stroke="#000000" stroke-linecap="round" stroke-linejoin="round" stroke-width="17.000000"
	d="
M282.000000,682.000000 
	C283.941589,694.791565 282.722229,707.665222 283.000000,720.500000 
"/>
<path fill="none" opacity="1.000000" stroke="#000000" stroke-linecap="round" stroke-linejoin="round" stroke-width="16.000000"
	d="
M745.500000,682.000000 
	C743.359985,694.619141 745.026245,707.338440 744.500000,720.000000 
"/>
<path fill="none" opacity="1.000000" stroke="#000000" stroke-linecap="round" stroke-linejoin="round" stroke-width="3.000000"
	d="
M426.500000,280.000000 
	C429.116364,280.971588 431.835358,280.301025 434.500000,280.500000 
"/>
</svg>